<svg xmlns="http://www.w3.org/2000/svg" width="60" height="60" viewBox="0 0 60 60"><g transform="translate(0 0)"><path d="M230.994,11.742,221.867,22.4v2A14.671,14.671,0,0,0,236.3,12.366,25.741,25.741,0,0,0,230.994,11.742Z" transform="translate(-195.867 -10.366)" fill="#4a8dc6"/><path d="M146.179,11.984l.035-.268a31.976,31.976,0,0,0-20.381,7.4,14.635,14.635,0,0,0,11.254,5.262v-2C141.56,22.375,145.383,18,146.179,11.984Z" transform="translate(-111.088 -10.34)" fill="#77aad4"/><path d="M241.059,24.221A10.663,10.663,0,0,0,233.9,7.441a22.167,22.167,0,0,0-8.472-4.913c.011-.057.022-.114.033-.171a2,2,0,0,0-3.936-.713,12.621,12.621,0,0,1-1.353,3.82l-12.81,51.886a10.663,10.663,0,0,0,17.178-4.719,35.188,35.188,0,0,0,4.576-3.339,4.666,4.666,0,0,0,5.2-5.506A31.8,31.8,0,0,0,241.059,24.221Z" transform="translate(-183.064 0)" fill="#a5c6e3"/><path d="M53.914,67.8c.528-6.259-1.372-11.9-5.351-15.875A18.917,18.917,0,0,0,37.11,46.619a12.672,12.672,0,0,1-20.83,2.026,2,2,0,1,0-3.068,2.567l.016.019q-.657.6-1.293,1.229a35.744,35.744,0,0,0-4.177,5.017A12.672,12.672,0,0,0,2.013,76.009,23.1,23.1,0,0,0,8.608,91.916,23.064,23.064,0,0,0,24.3,98.505a51.738,51.738,0,0,0,20.936-12.78A29.072,29.072,0,0,0,53.914,67.8Z" transform="translate(0 -41.156)" fill="#d2e3f1"/><path d="M267.378,364.089v13.333a6.667,6.667,0,0,0,0-13.333Z" transform="translate(-236.045 -321.423)" fill="#4a8dc6"/><path d="M219.821,370.756c0-3.682-1.194-6.667-2.667-6.667a6.667,6.667,0,0,0,0,13.333C218.628,377.422,219.821,374.438,219.821,370.756Z" transform="translate(-185.821 -321.423)" fill="#77aad4"/><path d="M420.978,96.711v13.333a6.667,6.667,0,0,0,0-13.333Z" transform="translate(-371.645 -85.378)" fill="#4a8dc6"/><path d="M373.421,103.378c0-3.682-1.194-6.667-2.667-6.667a6.667,6.667,0,1,0,0,13.333C372.228,110.044,373.421,107.06,373.421,103.378Z" transform="translate(-321.421 -85.378)" fill="#77aad4"/><g transform="translate(15.667 25)"><circle cx="1" cy="1" r="1" transform="translate(13.333 4)" fill="#a5c6e3"/><circle cx="1" cy="1" r="1" transform="translate(17.333)" fill="#a5c6e3"/><circle cx="1" cy="1" r="1" transform="translate(28 12.667)" fill="#a5c6e3"/><circle cx="1" cy="1" r="1" transform="translate(0 24.667)" fill="#a5c6e3"/></g><path d="M108.089,164.978v17.333a8.667,8.667,0,1,0,0-17.333Z" transform="translate(-95.422 -145.645)" fill="#4a8dc6"/><path d="M47.466,173.644c0-4.786-2.089-8.667-4.667-8.667a8.667,8.667,0,1,0,0,17.333C45.377,182.31,47.466,178.43,47.466,173.644Z" transform="translate(-30.133 -145.644)" fill="#77aad4"/></g></svg>