<svg xmlns="http://www.w3.org/2000/svg" width="254.732" height="142.65" viewBox="0 0 254.732 142.65"><rect width="254.732" height="142.65" fill="#26136e"/><g transform="translate(13.799 8.326)"><g transform="translate(66.725 16.157)"><path d="M600.042,261.883A46.842,46.842,0,1,0,553.2,215.042a46.93,46.93,0,0,0,46.842,46.842Z" transform="translate(-553.2 -168.2)" fill="#331178" fill-rule="evenodd"/><path d="M637.039,292.578A40.539,40.539,0,1,0,596.5,252.039a40.616,40.616,0,0,0,40.539,40.539Z" transform="translate(-590.197 -205.197)" fill="#3a1580" fill-rule="evenodd"/><path d="M694.542,340.285A30.743,30.743,0,1,0,663.8,309.543a30.807,30.807,0,0,0,30.742,30.743Z" transform="translate(-647.701 -262.701)" fill="#44158f" fill-rule="evenodd"/><path d="M751.534,387.567A21.034,21.034,0,1,0,730.5,366.534a21.072,21.072,0,0,0,21.034,21.034Z" transform="translate(-704.692 -319.692)" fill="#521b96" fill-rule="evenodd"/></g><g transform="translate(0)"><path d="M112.413,92.411A17.606,17.606,0,1,0,94.8,74.8a17.643,17.643,0,0,0,17.613,17.613Z" transform="translate(-94.8 -57.2)" fill="#341270" fill-rule="evenodd"/><path d="M126.34,103.966a15.233,15.233,0,1,0-15.24-15.24,15.26,15.26,0,0,0,15.24,15.24Z" transform="translate(-108.727 -71.127)" fill="#3d1273" fill-rule="evenodd"/><path d="M147.958,121.9A11.55,11.55,0,1,0,136.4,110.343,11.573,11.573,0,0,0,147.958,121.9Z" transform="translate(-130.345 -92.745)" fill="#491279" fill-rule="evenodd"/><path d="M169.4,139.608a7.9,7.9,0,1,0-7.9-7.9,7.921,7.921,0,0,0,7.9,7.9Z" transform="translate(-151.791 -114.106)" fill="#55147f" fill-rule="evenodd"/></g><g transform="translate(191.777 14.905)"><path d="M1418.952,172.9a6.652,6.652,0,1,0-6.652-6.652,6.66,6.66,0,0,0,6.652,6.652Z" transform="translate(-1412.3 -159.6)" fill="#341270" fill-rule="evenodd"/><path d="M1424.249,177.314a5.757,5.757,0,1,0-5.75-5.75,5.774,5.774,0,0,0,5.75,5.75Z" transform="translate(-1417.597 -164.898)" fill="#3d1273" fill-rule="evenodd"/><path d="M1432.367,184.034a4.367,4.367,0,1,0-4.367-4.367,4.38,4.38,0,0,0,4.367,4.367Z" transform="translate(-1425.715 -173.015)" fill="#491279" fill-rule="evenodd"/><path d="M1440.484,190.768a2.984,2.984,0,1,0-2.984-2.984,2.988,2.988,0,0,0,2.984,2.984Z" transform="translate(-1433.832 -181.132)" fill="#55147f" fill-rule="evenodd"/></g></g><g transform="translate(198.997 65.488)"><path d="M1377.433,470.38a10.24,10.24,0,1,0-10.233-10.247,10.263,10.263,0,0,0,10.233,10.247Z" transform="translate(-1367.185 -449.9)" fill="#f66" fill-rule="evenodd"/><path d="M1391.076,449.9a10.24,10.24,0,1,1,0,20.48c-1.033-.277-3.2-.451-2.853-1.412.175-.48,1.543.189,2.9.306,1.805.131,3.7-.233,3.916-.815.306-.873-1.863-.291-4.367-.422-2.969-.16-6.376-1.033-6.288-2.416.073-1.048,3.057.306,6,.568,3,.277,5.953-.553,6.114-2.3.16-1.776-2.737-1.325-6.084-1.4-3.13-.073-7.1-1.135-7.234-3.028-.146-2.038,3.057-1.194,6.084-1.252,3.057-.058,5.953-1.034,5.415-3.071-.291-1.106-2.111-.408-4.367-.306s-4.993-.378-5.167-1.31c-.32-1.747,3.784-3.406,5.939-3.625Z" transform="translate(-1380.829 -449.9)" fill="#c43f57" fill-rule="evenodd"/><path d="M1377.348,449.9c.335,0,.67.015.99.044h-.233a10.25,10.25,0,0,0-.99,20.451,10.249,10.249,0,0,1,.233-20.5Z" transform="translate(-1367.1 -449.9)" fill="#df99ff" fill-rule="evenodd"/></g><g transform="translate(72.271 34.338)"><path d="M498.727,240.354a2.227,2.227,0,1,0-2.227-2.227,2.236,2.236,0,0,0,2.227,2.227Z" transform="translate(-496.5 -235.9)" fill="#7c1370" fill-rule="evenodd"/><path d="M505.589,238.315a2.228,2.228,0,0,1-1.223,4.09,1.582,1.582,0,0,1-.262-.015,2.228,2.228,0,0,1,1.223-4.09c.087,0,.175.015.262.015Z" transform="translate(-502.139 -237.951)" fill="#be2385" fill-rule="evenodd"/></g><g transform="translate(112.024 55.983)"><path d="M784.942,415.284A15.342,15.342,0,1,0,769.6,399.942a15.372,15.372,0,0,0,15.342,15.342Z" transform="translate(-769.6 -384.6)" fill="#6838a4" fill-rule="evenodd"/><path d="M804.167,431.234A12.067,12.067,0,1,0,792.1,419.167a12.092,12.092,0,0,0,12.067,12.067Z" transform="translate(-788.825 -403.825)" fill="#794dae" fill-rule="evenodd"/><path d="M819.718,444.136a9.418,9.418,0,1,0-9.418-9.418,9.433,9.433,0,0,0,9.418,9.418Z" transform="translate(-804.376 -419.376)" fill="#9e7ec5" fill-rule="evenodd"/><path d="M827.151,450.3A8.151,8.151,0,1,0,819,442.151a8.166,8.166,0,0,0,8.151,8.151Z" transform="translate(-811.809 -426.809)" fill="#fff" fill-rule="evenodd"/></g><g transform="translate(44.134 114.12)"><path d="M303.984,888.147a.755.755,0,0,1,.393.1c.116.073,13.974-7.773,14.047-7.656s-13.625,8.21-13.625,8.37a.8.8,0,1,1-1.6,0,.79.79,0,0,1,.786-.815Z" transform="translate(-303.197 -866.531)" fill="#ffc" fill-rule="evenodd"/><path d="M304.926,934.952a.626.626,0,1,0,0-1.252.621.621,0,0,0-.626.626.631.631,0,0,0,.626.626Z" transform="translate(-304.139 -911.909)" fill="#ff6" fill-rule="evenodd"/><path d="M305.822,936.344a.422.422,0,1,0-.422-.422.422.422,0,0,0,.422.422Z" transform="translate(-305.079 -913.447)" fill="#fc0" fill-rule="evenodd"/><path d="M425.943,796.372c.029-.015,21.368-12.416,21.4-12.373s-21.208,12.591-21.252,12.62c-.291.175-.408-.087-.146-.247Z" transform="translate(-407.951 -783.999)" fill="#ffc" fill-rule="evenodd"/></g><g transform="translate(7.773 4.09)"><path d="M641.864,111.213a.36.36,0,0,0,.364-.364.348.348,0,0,0-.364-.349.357.357,0,1,0,0,.713Z" transform="translate(-555.896 -98.506)" fill="#fff" fill-rule="evenodd"/><path d="M480.564,81.628a.364.364,0,1,0-.364-.364.37.37,0,0,0,.364.364Z" transform="translate(-418.075 -73.214)" fill="#fff" fill-rule="evenodd"/><path d="M416.364,279.228a.364.364,0,1,0-.364-.364.37.37,0,0,0,.364.364Z" transform="translate(-363.22 -242.051)" fill="#fff" fill-rule="evenodd"/><path d="M554.064,530.028a.364.364,0,1,0-.364-.364.37.37,0,0,0,.364.364Z" transform="translate(-480.876 -456.345)" fill="#fff" fill-rule="evenodd"/><path d="M421.264,652.213a.357.357,0,0,0,.364-.349.37.37,0,0,0-.364-.364.357.357,0,1,0,0,.713Z" transform="translate(-367.406 -560.757)" fill="#fff" fill-rule="evenodd"/><path d="M473.164,662.028a.364.364,0,1,0-.364-.364.37.37,0,0,0,.364.364Z" transform="translate(-411.752 -569.131)" fill="#fff" fill-rule="evenodd"/><path d="M687.964,847.128a.364.364,0,1,0-.364-.364.36.36,0,0,0,.364.364Z" transform="translate(-595.285 -727.287)" fill="#fff" fill-rule="evenodd"/><path d="M621.364,891.713a.36.36,0,0,0,.364-.364.348.348,0,0,0-.364-.349.357.357,0,1,0,0,.713Z" transform="translate(-538.38 -765.395)" fill="#fff" fill-rule="evenodd"/><path d="M179.264,689.128a.364.364,0,1,0-.364-.364.38.38,0,0,0,.364.364Z" transform="translate(-160.632 -592.286)" fill="#fff" fill-rule="evenodd"/><path d="M799.164,642.228a.364.364,0,1,0-.364-.364.36.36,0,0,0,.364.364Z" transform="translate(-690.299 -552.213)" fill="#fff" fill-rule="evenodd"/><path d="M1028.764,745.928a.364.364,0,1,0-.364-.364.37.37,0,0,0,.364.364Z" transform="translate(-886.478 -640.818)" fill="#fff" fill-rule="evenodd"/><path d="M1243.664,543.428a.364.364,0,1,0-.364-.364.36.36,0,0,0,.364.364Z" transform="translate(-1070.097 -467.794)" fill="#fff" fill-rule="evenodd"/><path d="M1401.664,348.328a.364.364,0,1,0-.364-.364.37.37,0,0,0,.364.364Z" transform="translate(-1205.098 -301.093)" fill="#fff" fill-rule="evenodd"/><path d="M1362.164,254.528a.364.364,0,1,0-.364-.364.36.36,0,0,0,.364.364Z" transform="translate(-1171.348 -220.947)" fill="#fff" fill-rule="evenodd"/><path d="M1473.944,203.613a.357.357,0,1,0,0-.713.348.348,0,0,0-.349.364.336.336,0,0,0,.349.349Z" transform="translate(-1266.869 -177.456)" fill="#fff" fill-rule="evenodd"/><path d="M1552.364,197.728a.364.364,0,1,0-.364-.364.36.36,0,0,0,.364.364Z" transform="translate(-1333.862 -172.415)" fill="#fff" fill-rule="evenodd"/><path d="M1453.364,157.728a.364.364,0,1,0-.364-.364.352.352,0,0,0,.364.364Z" transform="translate(-1249.273 -138.237)" fill="#fff" fill-rule="evenodd"/><path d="M1305.364,39.728a.364.364,0,1,0-.364-.364.37.37,0,0,0,.364.364Z" transform="translate(-1122.816 -37.413)" fill="#fff" fill-rule="evenodd"/><path d="M1673.364,39.728a.364.364,0,1,0-.364-.364.37.37,0,0,0,.364.364Z" transform="translate(-1437.249 -37.413)" fill="#fff" fill-rule="evenodd"/><path d="M1663.464,229.828a.364.364,0,1,0-.364-.364.36.36,0,0,0,.364.364Z" transform="translate(-1428.79 -199.842)" fill="#fff" fill-rule="evenodd"/><path d="M1539.964,471.828a.364.364,0,1,0-.364-.364.36.36,0,0,0,.364.364Z" transform="translate(-1323.267 -406.616)" fill="#fff" fill-rule="evenodd"/><path d="M1651.064,578.028a.364.364,0,1,0-.364-.364.37.37,0,0,0,.364.364Z" transform="translate(-1418.195 -497.358)" fill="#fff" fill-rule="evenodd"/><path d="M1591.864,753.413a.36.36,0,0,0,.364-.364.348.348,0,0,0-.364-.349.357.357,0,1,0,0,.713Z" transform="translate(-1367.612 -647.226)" fill="#fff" fill-rule="evenodd"/><path d="M1273.264,738.528a.364.364,0,1,0-.364-.364.36.36,0,0,0,.364.364Z" transform="translate(-1095.388 -634.495)" fill="#fff" fill-rule="evenodd"/><path d="M1142.364,859.528a.364.364,0,1,0-.364-.364.38.38,0,0,0,.364.364Z" transform="translate(-983.542 -737.882)" fill="#fff" fill-rule="evenodd"/><path d="M1026.364,123.628a.348.348,0,0,0,.349-.364.357.357,0,1,0-.349.364Z" transform="translate(-884.427 -109.101)" fill="#fff" fill-rule="evenodd"/><path d="M132.364,52.028a.348.348,0,0,0,.349-.364.357.357,0,1,0-.713,0,.37.37,0,0,0,.364.364Z" transform="translate(-120.559 -47.923)" fill="#fff" fill-rule="evenodd"/><path d="M145.2,62.494a.59.59,0,0,0,.6-.6.6.6,0,0,0-.6-.6.609.609,0,0,0-.6.6.6.6,0,0,0,.6.6Z" transform="translate(-131.325 -56.467)" fill="#fff" fill-rule="evenodd"/><path d="M279.6,29.294a.6.6,0,0,0,.6-.6.609.609,0,0,0-.6-.6.6.6,0,0,0-.6.6.59.59,0,0,0,.6.6Z" transform="translate(-246.161 -28.1)" fill="#fff" fill-rule="evenodd"/><path d="M329,76.194a.609.609,0,0,0,.6-.6.6.6,0,0,0-.6-.6.6.6,0,0,0,0,1.194Z" transform="translate(-288.371 -68.173)" fill="#fff" fill-rule="evenodd"/><path d="M641.3,52.794a.6.6,0,0,0,.6-.6.59.59,0,0,0-.6-.6.6.6,0,0,0,0,1.194Z" transform="translate(-555.212 -48.179)" fill="#fff" fill-rule="evenodd"/><path d="M266.4,375.394a.6.6,0,0,0,.6-.6.609.609,0,0,0-.6-.6.6.6,0,0,0-.6.6.59.59,0,0,0,.6.6Z" transform="translate(-234.883 -323.821)" fill="#fff" fill-rule="evenodd"/><path d="M572.6,718.694a.6.6,0,0,0,.6-.6.609.609,0,0,0-.6-.6.6.6,0,1,0,0,1.194Z" transform="translate(-496.512 -617.15)" fill="#fff" fill-rule="evenodd"/><path d="M54,876.694a.6.6,0,1,0,0-1.194.609.609,0,0,0-.6.6.6.6,0,0,0,.6.6Z" transform="translate(-53.4 -752.152)" fill="#fff" fill-rule="evenodd"/><path d="M1002.3,908.794a.59.59,0,0,0,.6-.6.6.6,0,0,0-.6-.6.609.609,0,0,0-.6.6.59.59,0,0,0,.6.6Z" transform="translate(-863.664 -779.579)" fill="#fff" fill-rule="evenodd"/><path d="M1192.9,474.194a.6.6,0,0,0,.6-.6.59.59,0,0,0-.6-.6.6.6,0,1,0,0,1.194Z" transform="translate(-1026.52 -408.24)" fill="#fff" fill-rule="evenodd"/><path d="M1588.1,673.494a.59.59,0,0,0,.6-.6.6.6,0,0,0-.6-.6.609.609,0,0,0-.6.6.6.6,0,0,0,.6.6Z" transform="translate(-1364.195 -578.53)" fill="#fff" fill-rule="evenodd"/><path d="M935.4,220.094a.6.6,0,0,0,.6-.6.59.59,0,0,0-.6-.6.6.6,0,0,0-.6.6.59.59,0,0,0,.6.6Z" transform="translate(-806.502 -191.127)" fill="#fff" fill-rule="evenodd"/><path d="M1582.6,63.494a.609.609,0,0,0,.6-.6.6.6,0,1,0-1.194,0,.609.609,0,0,0,.6.6Z" transform="translate(-1359.495 -57.322)" fill="#fff" fill-rule="evenodd"/><path d="M679.247,446.995a.247.247,0,1,0-.247-.247.245.245,0,0,0,.247.247Z" transform="translate(-587.937 -385.597)" fill="#fff" fill-rule="evenodd"/><path d="M677.547,160.995a.255.255,0,0,0,.247-.247.245.245,0,0,0-.247-.247.247.247,0,1,0,0,.495Z" transform="translate(-586.484 -141.228)" fill="#fff" fill-rule="evenodd"/><path d="M965.247,65.595a.255.255,0,0,0,.247-.247.245.245,0,0,0-.247-.247.237.237,0,0,0-.247.247.245.245,0,0,0,.247.247Z" transform="translate(-832.306 -59.714)" fill="#fff" fill-rule="evenodd"/><path d="M1315.948,297.695a.247.247,0,1,0-.247-.247.237.237,0,0,0,.247.247Z" transform="translate(-1131.958 -258.029)" fill="#fff" fill-rule="evenodd"/><path d="M1565.348,297.695a.255.255,0,0,0,.247-.247.245.245,0,0,0-.247-.247.255.255,0,0,0-.248.247.237.237,0,0,0,.248.247Z" transform="translate(-1345.055 -258.029)" fill="#fff" fill-rule="evenodd"/><path d="M1627.048,517.495a.247.247,0,0,0,0-.495.247.247,0,1,0,0,.495Z" transform="translate(-1397.774 -445.835)" fill="#fff" fill-rule="evenodd"/><path d="M1041.748,537.295a.247.247,0,0,0,0-.495.247.247,0,1,0,0,.495Z" transform="translate(-897.671 -462.753)" fill="#fff" fill-rule="evenodd"/><path d="M1138.147,729.895a.247.247,0,1,0-.247-.247.245.245,0,0,0,.247.247Z" transform="translate(-980.039 -627.318)" fill="#fff" fill-rule="evenodd"/><path d="M426.947,406.395a.247.247,0,1,0,0-.495.255.255,0,0,0-.247.247.245.245,0,0,0,.247.247Z" transform="translate(-372.362 -350.907)" fill="#fff" fill-rule="evenodd"/><path d="M256.447,213.195a.247.247,0,1,0-.247-.247.245.245,0,0,0,.247.247Z" transform="translate(-226.68 -185.829)" fill="#fff" fill-rule="evenodd"/><path d="M251.547,337.295a.247.247,0,1,0-.247-.247.255.255,0,0,0,.247.247Z" transform="translate(-222.493 -291.865)" fill="#fff" fill-rule="evenodd"/><path d="M157.747,510.095a.247.247,0,0,0,0-.495.245.245,0,0,0-.247.247.237.237,0,0,0,.247.247Z" transform="translate(-142.347 -439.512)" fill="#fff" fill-rule="evenodd"/><path d="M214.347,175.195a.245.245,0,0,0,.247-.247.247.247,0,0,0-.495,0,.245.245,0,0,0,.247.247Z" transform="translate(-190.708 -153.361)" fill="#fff" fill-rule="evenodd"/><path d="M370.14,322.495a.255.255,0,0,0,.247-.247.245.245,0,0,0-.247-.247.255.255,0,0,0-.247.247.237.237,0,0,0,.247.247Z" transform="translate(-323.823 -279.22)" fill="#fff" fill-rule="evenodd"/><path d="M192.647,872.695a.247.247,0,1,0-.247-.247.245.245,0,0,0,.247.247Z" transform="translate(-172.167 -749.332)" fill="#fff" fill-rule="evenodd"/><path d="M542.948,937.295a.255.255,0,0,0,.247-.247.245.245,0,0,0-.247-.247.255.255,0,0,0-.247.247.245.245,0,0,0,.247.247Z" transform="translate(-471.477 -804.529)" fill="#fff" fill-rule="evenodd"/><path d="M1691.248,881.995a.247.247,0,1,0-.248-.247.255.255,0,0,0,.248.247Z" transform="translate(-1452.629 -757.278)" fill="#fff" fill-rule="evenodd"/><path d="M1331.448,644.195a.247.247,0,0,0,0-.495.247.247,0,0,0,0,.495Z" transform="translate(-1145.202 -554.093)" fill="#fff" fill-rule="evenodd"/></g></svg>