<svg xmlns="http://www.w3.org/2000/svg" width="40" height="40" viewBox="0 0 40 40"><g transform="translate(-844 -500)"><g transform="translate(844 -520.36)"><path d="M194.787,1212.29a2.858,2.858,0,1,0,2.858,2.858,2.869,2.869,0,0,0-2.858-2.858Z" transform="translate(-174.792 -174.793)" fill="#868686"/><path d="M209.416,1228.35a1.429,1.429,0,1,1-1.424,1.424,1.419,1.419,0,0,1,1.424-1.424Z" transform="translate(-189.421 -189.419)" fill="#ff655b"/><g transform="translate(0 1020.36)"><path d="M216.024,1020.36v12.855h1.424V1020.36Z" transform="translate(-196.736 -1020.36)" fill="#868686"/><path d="M216.024,1324.26v12.866h1.424V1324.26Z" transform="translate(-196.736 -1297.126)" fill="#868686"/><path d="M304.016,1236.27v1.434h12.855v-1.434Z" transform="translate(-276.871 -1216.992)" fill="#868686"/><path d="M0,1236.27v1.434H12.855v-1.434Z" transform="translate(0 -1216.992)" fill="#868686"/></g><g transform="translate(8.861 1029.216)"><path d="M244.5,1119.548a.714.714,0,0,0-.12,1.409,10,10,0,0,1,7.4,7.391.715.715,0,0,0,1.391-.33v0a11.431,11.431,0,0,0-8.454-8.443.718.718,0,0,0-.212-.023Z" transform="translate(-230.918 -1119.547)" fill="#868686"/><path d="M107.971,1119.589a.721.721,0,0,0-.19.023,11.428,11.428,0,0,0-8.44,8.427.714.714,0,0,0,1.379.369c0-.01.005-.021.008-.031a10,10,0,0,1,7.386-7.377.714.714,0,0,0-.142-1.409Z" transform="translate(-99.31 -1119.586)" fill="#868686"/><path d="M252.407,1264.338a.714.714,0,0,0-.712.555,10,10,0,0,1-7.386,7.38.714.714,0,0,0,.282,1.4l.053-.013a11.43,11.43,0,0,0,8.44-8.429.713.713,0,0,0-.678-.893Z" transform="translate(-230.835 -1251.41)" fill="#868686"/><path d="M99.924,1264.077a.714.714,0,0,0-.656.89,11.431,11.431,0,0,0,8.44,8.454.715.715,0,0,0,.335-1.39h0a9.995,9.995,0,0,1-7.386-7.4.714.714,0,0,0-.734-.558h0Z" transform="translate(-99.246 -1251.172)" fill="#868686"/></g><g transform="translate(2 1022.36)" fill="none" stroke="#707070" stroke-width="2"><circle cx="18" cy="18" r="18" stroke="none"/><circle cx="18" cy="18" r="17" fill="none"/></g></g></g></svg>