<svg xmlns="http://www.w3.org/2000/svg" width="26.342" height="36" viewBox="0 0 26.342 36"><g transform="translate(-123.583 0)"><path d="M136.755,150.063l-12.512,10.01a1.756,1.756,0,0,0-.659,1.371v4.424l13.171-2.634,13.171,2.634v-4.424a1.756,1.756,0,0,0-.659-1.371Z" transform="translate(-0.001 -135.137)" fill="#ff6464"/><path d="M220.616,313.138l-1.044-4.177h-6.64l-1.044,4.177a.878.878,0,0,0,.852,1.091h7.025a.878.878,0,0,0,.852-1.091Z" transform="translate(-79.498 -278.23)" fill="#959cb3"/><path d="M214.523,313.138l1.044-4.177h-2.634l-1.044,4.177a.878.878,0,0,0,.852,1.091h2.634a.878.878,0,0,1-.852-1.091Z" transform="translate(-79.498 -278.23)" fill="#707487"/><path d="M207.569.429,203.48,7.736a3.513,3.513,0,0,0-.447,1.715V30.732a1.756,1.756,0,0,0,1.756,1.756h7.025a1.756,1.756,0,0,0,1.756-1.756V9.45a3.511,3.511,0,0,0-.447-1.715L209.034.429A.839.839,0,0,0,207.569.429Z" transform="translate(-71.547 0)" fill="#e4eaf6"/><path d="M206.545,30.781V9.5a7.658,7.658,0,0,1,.186-1.715l1.7-7.307a1.111,1.111,0,0,1,.157-.371.833.833,0,0,0-1.023.371L203.48,7.785a3.513,3.513,0,0,0-.447,1.715V30.781a1.756,1.756,0,0,0,1.756,1.756h2.488C206.873,32.537,206.545,31.751,206.545,30.781Z" transform="translate(-71.547 -0.049)" fill="#c7cfe2"/><path d="M209.035.43a.839.839,0,0,0-1.464,0l-4.089,7.307a3.513,3.513,0,0,0-.447,1.715v4.6h10.537v-4.6a3.511,3.511,0,0,0-.447-1.715Z" transform="translate(-71.548 -0.001)" fill="#ff6464"/><path d="M206.546,9.512a7.658,7.658,0,0,1,.186-1.715l1.7-7.307a1.111,1.111,0,0,1,.157-.371.86.86,0,0,0-.553-.012c-.013,0-.026.011-.039.016a.812.812,0,0,0-.193.106c-.019.014-.038.027-.056.043a.821.821,0,0,0-.182.218L203.481,7.8a3.513,3.513,0,0,0-.447,1.715v4.6h3.512Z" transform="translate(-71.548 -0.061)" fill="#d2555a"/><path d="M213.571,141.235H203.034v1.756h2.252a3.469,3.469,0,0,0,6.034,0h2.252v-1.756Z" transform="translate(-71.548 -127.187)" fill="#c7cfe2"/><circle cx="1.756" cy="1.756" r="1.756" transform="translate(134.999 12.292)" fill="#5b5d6e"/><path d="M206.546,144.266v-3.032h-3.512v1.756h2.252A3.551,3.551,0,0,0,206.546,144.266Z" transform="translate(-71.548 -127.186)" fill="#afb9d2"/><path d="M219.677.429l-3.2,5.716h7.863l-3.2-5.716A.839.839,0,0,0,219.677.429Z" transform="translate(-83.655 0)" fill="#707487"/><path d="M219.211,6.206,220.544.489A1.111,1.111,0,0,1,220.7.118a.86.86,0,0,0-.553-.012l-.011,0-.028.011a.812.812,0,0,0-.193.106l-.02.015c-.012.009-.025.018-.037.028a.823.823,0,0,0-.182.218l-3.2,5.716h2.732Z" transform="translate(-83.656 -0.06)" fill="#5b5d6e"/><g transform="translate(123.583 25.463)"><path d="M123.584,261.264l7.9-1.581V256l-7.9,2.107Z" transform="translate(-123.584 -255.996)" fill="#d2555a"/><path d="M316.87,261.264l-7.9-1.581V256l7.9,2.107Z" transform="translate(-290.527 -255.996)" fill="#d2555a"/></g><g transform="translate(123.583 25.463)"><path d="M124.462,264.824h0a.878.878,0,0,0-.878.878v7.025a.878.878,0,0,0,.878.878h0a.878.878,0,0,0,.878-.878V265.7A.878.878,0,0,0,124.462,264.824Z" transform="translate(-123.584 -263.946)" fill="#afb9d2"/><path d="M159.773,256h0a.878.878,0,0,0-.878.878v4.39a.878.878,0,0,0,.878.878h0a.878.878,0,0,0,.878-.878v-4.39A.878.878,0,0,0,159.773,256Z" transform="translate(-155.383 -255.996)" fill="#afb9d2"/><path d="M371.639,264.824h0a.878.878,0,0,1,.878.878v7.025a.878.878,0,0,1-.878.878h0a.878.878,0,0,1-.878-.878V265.7A.878.878,0,0,1,371.639,264.824Z" transform="translate(-346.175 -263.946)" fill="#afb9d2"/><path d="M336.328,256h0a.878.878,0,0,1,.878.878v4.39a.878.878,0,0,1-.878.878h0a.878.878,0,0,1-.878-.878v-4.39A.878.878,0,0,1,336.328,256Z" transform="translate(-314.376 -255.996)" fill="#afb9d2"/></g><g transform="translate(123.583 25.446)"><circle cx="0.895" cy="0.895" r="0.895" transform="translate(0 0.862)" fill="#959cb3"/><circle cx="0.895" cy="0.895" r="0.895" transform="translate(3.496)" fill="#959cb3"/><circle cx="0.895" cy="0.895" r="0.895" transform="translate(24.552 0.862)" fill="#959cb3"/><circle cx="0.895" cy="0.895" r="0.895" transform="translate(21.057)" fill="#959cb3"/></g><g transform="translate(135.876 23.707)"><path d="M248.05,243.608h0a.878.878,0,0,0,.878-.878v-3.512a.878.878,0,0,0-.878-.878h0a.878.878,0,0,0-.878.878v3.512A.878.878,0,0,0,248.05,243.608Z" transform="translate(-247.172 -238.34)" fill="#c7cfe2"/><path d="M274.534,243.608h0a.878.878,0,0,0,.878-.878v-3.512a.878.878,0,0,0-.878-.878h0a.878.878,0,0,0-.878.878v3.512A.878.878,0,0,0,274.534,243.608Z" transform="translate(-271.022 -238.34)" fill="#c7cfe2"/></g><path d="M221.567,243.608h0a.878.878,0,0,0,.878-.878v-3.512a.878.878,0,0,0-.878-.878h0a.878.878,0,0,0-.878.878v3.512A.878.878,0,0,0,221.567,243.608Z" transform="translate(-87.447 -214.633)" fill="#afb9d2"/></g></svg>